<svg width="66" height="18" viewBox="0 0 66 18" fill="none" xmlns="http://www.w3.org/2000/svg">
<path d="M0.000656292 16.8242V16.5842L0.480656 16.4162C0.800656 16.3202 1.00866 16.1762 1.10466 15.9842C1.21666 15.7922 1.27266 15.5362 1.27266 15.2162V2.64022C1.27266 2.32022 1.21666 2.06422 1.10466 1.87222C0.992656 1.68022 0.776656 1.52822 0.456656 1.41622L0.000656292 1.22422V0.984218H5.83266C8.21666 0.984218 9.93666 1.42422 10.9927 2.30422C12.0647 3.16822 12.6007 4.31222 12.6007 5.73622C12.6007 6.64822 12.3767 7.48822 11.9287 8.25622C11.4967 9.00822 10.7767 9.60822 9.76866 10.0562C8.76066 10.5042 7.40066 10.7282 5.68866 10.7282H4.87266V15.1442C4.87266 15.7682 5.18466 16.1762 5.80866 16.3682L6.52866 16.5842V16.8242H0.000656292ZM4.87266 10.2482H5.78466C6.56866 10.2482 7.20866 10.1202 7.70466 9.86422C8.20066 9.60822 8.56866 9.16022 8.80866 8.52022C9.04866 7.88022 9.16866 6.99222 9.16866 5.85622C9.16866 4.70422 9.03266 3.80822 8.76066 3.16822C8.50466 2.52822 8.12066 2.08822 7.60866 1.84822C7.09666 1.59222 6.45666 1.46422 5.68866 1.46422H4.87266V10.2482ZM13.3372 16.8242V16.5842L13.6252 16.4882C14.2012 16.2962 14.4892 15.8962 14.4892 15.2882V2.44822C14.4892 2.12822 14.4252 1.88822 14.2972 1.72822C14.1692 1.55222 13.9452 1.42422 13.6252 1.34422L13.3132 1.27222V1.03222L17.7052 0.000217915L17.9932 0.216218L17.8972 3.57622V11.7842C17.8972 12.3762 17.8972 12.9682 17.8972 13.5602C17.9132 14.1362 17.9212 14.7122 17.9212 15.2882C17.9212 15.6082 17.9852 15.8722 18.1132 16.0802C18.2412 16.2722 18.4572 16.4162 18.7612 16.5122L19.0732 16.5842V16.8242H13.3372ZM24.3826 17.1842C23.7586 17.1842 23.1826 17.0642 22.6546 16.8242C22.1426 16.5842 21.7346 16.2002 21.4306 15.6722C21.1426 15.1282 21.0066 14.4162 21.0226 13.5362L21.0946 7.36822C21.0946 7.00022 21.0306 6.73622 20.9026 6.57622C20.7746 6.41622 20.5746 6.30422 20.3026 6.24022L20.0146 6.14422V5.90422L24.3106 5.06422L24.5506 5.30422L24.4306 8.71222V14.4962C24.4306 15.0082 24.5746 15.3842 24.8626 15.6242C25.1666 15.8642 25.5426 15.9842 25.9906 15.9842C26.4386 15.9842 26.8386 15.9202 27.1906 15.7922C27.5426 15.6642 27.8946 15.4722 28.2466 15.2162L28.3426 7.39222C28.3426 7.02422 28.2866 6.76822 28.1746 6.62422C28.0626 6.46422 27.8546 6.35222 27.5506 6.28822L27.3106 6.21622V5.97622L31.5106 5.06422L31.7506 5.30422L31.6786 8.71222V15.2162C31.6786 15.5682 31.7266 15.8402 31.8226 16.0322C31.9186 16.2242 32.1266 16.3842 32.4466 16.5122L32.6866 16.5842V16.8242L28.4866 17.0642L28.2706 15.6482C27.7426 16.0802 27.1666 16.4482 26.5426 16.7522C25.9346 17.0402 25.2146 17.1842 24.3826 17.1842ZM33.6558 16.8242V16.5842L33.9918 16.4882C34.2958 16.4082 34.5038 16.2722 34.6158 16.0802C34.7438 15.8882 34.8158 15.6322 34.8318 15.3122V7.80022C34.8318 7.44822 34.7758 7.19222 34.6638 7.03222C34.5518 6.85622 34.3358 6.73622 34.0158 6.67222L33.6558 6.57622V6.33622L37.7598 4.94422L37.9998 5.18422L38.1918 6.81622C38.7198 6.28822 39.3198 5.84022 39.9918 5.47222C40.6798 5.10422 41.3918 4.92022 42.1278 4.92022C42.8958 4.92022 43.5118 5.08022 43.9758 5.40022C44.4398 5.70422 44.7918 6.18422 45.0318 6.84022C45.6558 6.24822 46.3278 5.78422 47.0478 5.44822C47.7838 5.09622 48.4958 4.92022 49.1838 4.92022C50.3198 4.92022 51.1518 5.19222 51.6798 5.73622C52.2238 6.28022 52.4958 7.13622 52.4958 8.30422V15.3362C52.4958 15.9602 52.7838 16.3522 53.3598 16.5122L53.6238 16.5842V16.8242H48.0798V16.5842L48.3198 16.5122C48.6238 16.4162 48.8318 16.2722 48.9438 16.0802C49.0718 15.8882 49.1358 15.6322 49.1358 15.3122V7.96822C49.1358 7.29622 49.0158 6.84022 48.7758 6.60022C48.5358 6.34422 48.1518 6.21622 47.6238 6.21622C47.2078 6.21622 46.7998 6.31222 46.3998 6.50422C46.0158 6.68022 45.6078 6.95222 45.1758 7.32022C45.2558 7.57622 45.3038 7.85622 45.3198 8.16022C45.3518 8.46422 45.3678 8.78422 45.3678 9.12022V15.3362C45.3838 15.9602 45.6718 16.3522 46.2318 16.5122L46.4478 16.5842V16.8242H40.8798V16.5842L41.2158 16.4882C41.5198 16.3922 41.7278 16.2562 41.8398 16.0802C41.9678 15.8882 42.0318 15.6322 42.0318 15.3122V7.99222C42.0318 7.35222 41.9118 6.89622 41.6718 6.62422C41.4478 6.35222 41.0558 6.21622 40.4958 6.21622C40.1278 6.21622 39.7598 6.31222 39.3918 6.50422C39.0238 6.68022 38.6398 6.94422 38.2398 7.29622V15.3362C38.2398 15.9602 38.5198 16.3522 39.0798 16.5122L39.2958 16.5842V16.8242H33.6558ZM60.586 4.92022C61.626 4.92022 62.514 5.13622 63.25 5.56822C63.986 5.98422 64.546 6.56022 64.93 7.29622C65.33 8.01622 65.53 8.84022 65.53 9.76822C65.53 9.94422 65.522 10.1282 65.506 10.3202C65.49 10.4962 65.458 10.6562 65.41 10.8002H58.258C58.274 12.5282 58.578 13.7762 59.17 14.5442C59.778 15.2962 60.674 15.6722 61.858 15.6722C62.658 15.6722 63.306 15.5442 63.802 15.2882C64.298 15.0322 64.762 14.6562 65.194 14.1602L65.434 14.3762C64.938 15.2562 64.274 15.9442 63.442 16.4402C62.626 16.9362 61.642 17.1842 60.49 17.1842C59.354 17.1842 58.346 16.9442 57.466 16.4642C56.586 15.9682 55.898 15.2642 55.402 14.3522C54.906 13.4402 54.658 12.3522 54.658 11.0882C54.658 9.77622 54.946 8.66422 55.522 7.75222C56.098 6.82422 56.834 6.12022 57.73 5.64022C58.642 5.16022 59.594 4.92022 60.586 4.92022ZM60.514 5.40022C60.05 5.40022 59.65 5.54422 59.314 5.83222C58.994 6.10422 58.738 6.60022 58.546 7.32022C58.37 8.02422 58.274 9.02422 58.258 10.3202H62.362C62.522 8.57622 62.458 7.32022 62.17 6.55222C61.882 5.78422 61.33 5.40022 60.514 5.40022Z" fill="#1E1E1E"/>
</svg>
